<svg xmlns="http://www.w3.org/2000/svg" width="32" height="32" viewBox="0 0 96 96"><path d="M34 47V15Q34 8 41 8Q48 8 48 15V38Q51 33 57 34Q63 35 63 42Q67 37 72 40Q77 43 76 49Q81 46 86 51L86 69Q85 79 75 88L36 88L18 65Q13 56 20 51Q24 48 28 52L34 58Z" fill="#152332" stroke="#35e7f3" stroke-width="3" stroke-linejoin="round" stroke-linecap="round" /><path d="M40 22L44 22" fill="none" stroke="#edfaff" stroke-width="1.7" stroke-linecap="round"/><path d="M40 37L44 37" fill="none" stroke="#edfaff" stroke-width="1.7" stroke-linecap="round"/><path d="M56 44L56 54" fill="none" stroke="#edfaff" stroke-width="1.7" stroke-linecap="round"/><path d="M69 48L69 57" fill="none" stroke="#edfaff" stroke-width="1.7" stroke-linecap="round"/><path d="M35 68L45 79" fill="none" stroke="#edfaff" stroke-width="1.7" stroke-linecap="round"/><path d="M47 59L54 65L53 77L62 83" fill="none" stroke="#f02bbe" stroke-width="3" stroke-linejoin="round" stroke-linecap="round" /></svg>